# xmcd
# Copyright (C) 1995-1998 Ti Kan
#
# Track frame offsets:
#       150
#       14654
#       33704
#       52026
#       68048
#       76556
#       92323
#       106073
#       120068
#       138749
#       153400
#       170241
#       186376
#       204852
#       220983
#
# Disc length: 3172 seconds
#
# Revision: 14
# Processed by: cddbd v1.5.1PL0 Copyright (c) Steve Scherf et al.
# Submitted via: CD-Transfer v1.0
#
DISCID=c70c620f
DTITLE=Ari Hest - Euro Express 576
DYEAR=04
DGENRE=
TTITLE0=Getting Away With Murder
TTITLE1=Girl
TTITLE2=Blue (Album Vers.)
TTITLE3=Pride (Radio Edit)
TTITLE4=American Errorist (I Hate Hate Haters)
TTITLE5=Trend
TTITLE6=Too Late (Radio Edit)
TTITLE7=On My Mind
TTITLE8=Collide
TTITLE9=Old Bones
TTITLE10=Worn Me Down
TTITLE11=The Devil In The Wishing Well (Radio Vers.)
TTITLE12=Real Emotions
TTITLE13=Now That I'm On My Own
TTITLE14=They're On To Me
EXTD=
EXTT0=
EXTT1=
EXTT2=
EXTT3=
EXTT4=
EXTT5=
EXTT6=
EXTT7=
EXTT8=
EXTT9=
EXTT10=
EXTT11=
EXTT12=
EXTT13=
EXTT14=
PLAYORDER=
